<?xml version="1.0" encoding="UTF-8"?>
<!DOCTYPE svg PUBLIC "-//W3C//DTD SVG 1.1//EN"
    "http://www.w3.org/Graphics/SVG/1.1/DTD/svg11.dtd" >
<svg contentScriptType="text/ecmascript" width="595px"
     xmlns:xlink="http://www.w3.org/1999/xlink" zoomAndPan="magnify"
     contentStyleType="text/css" viewBox="-863 -971 1550 2188" height="839px"
     preserveAspectRatio="xMidYMid meet" xmlns="http://www.w3.org/2000/svg"
     version="1.1">
    <g id="edges">
        <path fill="none" stroke-width="1.0"
              d="M 125.420532,88.313141 C 161.527374,52.206291 161.527374,124.419991 125.420532,88.313141"
              class="26.0" stroke-opacity="1.0" stroke="#5669a6"/>
        <path fill="none" stroke-width="1.0"
              d="M -294.203064,2.123711 C -266.815704,-25.263660 -266.815704,29.511082 -294.203064,2.123711"
              class="70.0" stroke-opacity="1.0" stroke="#5669a6"/>
        <path fill="none" stroke-width="1.0"
              d="M 469.025177,-372.449310 C 509.025177,-412.449310 509.025177,-332.449310 469.025177,-372.449310"
              class="72.0" stroke-opacity="1.0" stroke="#5669a6"/>
        <path fill="none" stroke-width="1.0"
              d="M 469.025177,-372.449310 C 492.032379,-429.933929 612.770142,-481.650024 670.254761,-458.642822"
              class="72.0 118.0" stroke-opacity="1.0" stroke="#666490"/>
        <path fill="none" stroke-width="1.0"
              d="M 469.025177,-372.449310 C 484.733276,-297.227600 395.462830,-160.832855 320.241119,-145.124741"
              class="72.0 122.0" stroke-opacity="1.0" stroke="#666490"/>
        <path fill="none" stroke-width="1.0"
              d="M 670.254761,-458.642822 C 704.060120,-492.448151 704.060120,-424.837494 670.254761,-458.642822"
              class="118.0" stroke-opacity="1.0" stroke="#76607a"/>
        <path fill="none" stroke-width="1.0"
              d="M 320.241119,-145.124741 C 345.752991,-170.636597 345.752991,-119.612885 320.241119,-145.124741"
              class="122.0" stroke-opacity="1.0" stroke="#76607a"/>
        <path fill="none" stroke-width="1.0"
              d="M 179.540268,-63.157600 C 216.442169,-100.059509 216.442169,-26.255692 179.540268,-63.157600"
              class="206.0" stroke-opacity="1.0" stroke="#5669a6"/>
        <path fill="none" stroke-width="1.0"
              d="M 38.628044,196.879242 C 72.433380,163.073914 72.433380,230.684570 38.628044,196.879242"
              class="217.0" stroke-opacity="1.0" stroke="#76607a"/>
        <path fill="none" stroke-width="1.0"
              d="M 31.945358,30.085281 C 46.959908,47.834175 42.858395,96.979340 25.109501,111.993889"
              class="218.0 222.0" stroke-opacity="1.0" stroke="#4c465e"/>
        <path fill="none" stroke-width="1.0"
              d="M 25.109501,111.993889 C 55.525318,81.578072 55.525318,142.409698 25.109501,111.993889"
              class="222.0" stroke-opacity="1.0" stroke="#76607a"/>
        <path fill="none" stroke-width="1.0"
              d="M 164.085434,6.568483 C 198.133759,-27.479849 198.133759,40.616814 164.085434,6.568483"
              class="232.0" stroke-opacity="1.0" stroke="#5669a6"/>
        <path fill="none" stroke-width="1.0"
              d="M -159.553787,99.200218 C -122.897743,62.544174 -122.897743,135.856262 -159.553787,99.200218"
              class="250.0" stroke-opacity="1.0" stroke="#5669a6"/>
        <path fill="none" stroke-width="1.0"
              d="M -159.553787,99.200218 C -190.528198,80.676643 -209.204468,6.429664 -190.680893,-24.544750"
              class="250.0 271.0" stroke-opacity="1.0" stroke="#666490"/>
        <path fill="none" stroke-width="1.0"
              d="M -80.361259,114.431076 C -57.722984,91.792801 -57.722984,137.069351 -80.361259,114.431076"
              class="257.0" stroke-opacity="1.0" stroke="#5669a6"/>
        <path fill="none" stroke-width="1.0"
              d="M -190.680893,-24.544750 C -153.778992,-61.446659 -153.778992,12.357159 -190.680893,-24.544750"
              class="271.0" stroke-opacity="1.0" stroke="#76607a"/>
        <path fill="none" stroke-width="1.0"
              d="M 43.508488,-114.502213 C 78.008759,-149.002487 78.008759,-80.001938 43.508488,-114.502213"
              class="281.0" stroke-opacity="1.0" stroke="#5669a6"/>
        <path fill="none" stroke-width="1.0"
              d="M -32.710892,11.454579 C 4.420033,-25.676346 4.420033,48.585503 -32.710892,11.454579"
              class="286.0" stroke-opacity="1.0" stroke="#5669a6"/>
        <path fill="none" stroke-width="1.0"
              d="M -74.676071,16.437788 C -41.680229,-16.558054 -41.680229,49.433632 -74.676071,16.437788"
              class="333.0" stroke-opacity="1.0" stroke="#76607a"/>
        <path fill="none" stroke-width="1.0"
              d="M -74.676071,16.437788 C -84.997757,21.714056 -108.394691,14.145927 -113.670952,3.824241"
              class="333.0 339.0" stroke-opacity="1.0" stroke="#666490"/>
        <path fill="none" stroke-width="1.0"
              d="M 24.964705,137.453613 C 57.960548,104.457771 57.960548,170.449463 24.964705,137.453613"
              class="343.0" stroke-opacity="1.0" stroke="#5669a6"/>
        <path fill="none" stroke-width="1.0"
              d="M -38.087894,142.663498 C -11.901557,138.163467 34.128002,170.692902 38.628044,196.879242"
              class="350.0 217.0" stroke-opacity="1.0" stroke="#4c465e"/>
        <path fill="none" stroke-width="1.0"
              d="M 160.492828,186.502533 C 193.488678,153.506683 193.488678,219.498383 160.492828,186.502533"
              class="355.0" stroke-opacity="1.0" stroke="#5669a6"/>
        <path fill="none" stroke-width="1.0"
              d="M -73.145378,-136.108246 C -36.489334,-172.764282 -36.489334,-99.452202 -73.145378,-136.108246"
              class="367.0" stroke-opacity="1.0" stroke="#5669a6"/>
        <path fill="none" stroke-width="1.0"
              d="M -73.145378,-136.108246 C -43.114204,-131.785568 -4.551470,-80.254776 -8.874154,-50.223602"
              class="367.0 382.0" stroke-opacity="1.0" stroke="#706182"/>
        <path fill="none" stroke-width="1.0"
              d="M -8.874154,-50.223602 C 27.081924,-86.179680 27.081924,-14.267525 -8.874154,-50.223602"
              class="382.0" stroke-opacity="1.0" stroke="#8a5a5f"/>
        <path fill="none" stroke-width="1.0"
              d="M 590.564270,1207.769043 C 610.564270,1187.769043 610.564270,1227.769043 590.564270,1207.769043"
              class="395.0" stroke-opacity="1.0" stroke="#999999"/>
        <path fill="none" stroke-width="1.0"
              d="M -93.811783,187.743515 C -66.424408,160.356140 -66.424408,215.130890 -93.811783,187.743515"
              class="396.0" stroke-opacity="1.0" stroke="#5669a6"/>
        <path fill="none" stroke-width="1.0"
              d="M -10.053308,219.236984 C 25.051565,184.132111 25.051565,254.341858 -10.053308,219.236984"
              class="399.0" stroke-opacity="1.0" stroke="#5669a6"/>
        <path fill="none" stroke-width="1.0"
              d="M 112.183685,-47.207493 C 142.599503,-77.623306 142.599503,-16.791676 112.183685,-47.207493"
              class="401.0" stroke-opacity="1.0" stroke="#5669a6"/>
        <path fill="none" stroke-width="1.0"
              d="M -149.721741,207.555130 C -124.209885,182.043274 -124.209885,233.066986 -149.721741,207.555130"
              class="413.0" stroke-opacity="1.0" stroke="#5669a6"/>
        <path fill="none" stroke-width="1.0"
              d="M 143.462738,-260.193939 C 167.729523,-284.460724 167.729523,-235.927155 143.462738,-260.193939"
              class="414.0" stroke-opacity="1.0" stroke="#5669a6"/>
        <path fill="none" stroke-width="1.0"
              d="M -8.771355,124.568634 C 21.153864,94.643417 21.153864,154.493851 -8.771355,124.568634"
              class="418.0" stroke-opacity="1.0" stroke="#5669a6"/>
        <path fill="none" stroke-width="1.0"
              d="M 210.471619,-225.864624 C 245.938004,-261.331024 245.938004,-190.398239 210.471619,-225.864624"
              class="419.0" stroke-opacity="1.0" stroke="#5669a6"/>
        <path fill="none" stroke-width="1.0"
              d="M -118.574562,-70.174568 C -92.472389,-61.631794 -66.133301,-9.664382 -74.676071,16.437788"
              class="446.0 333.0" stroke-opacity="1.0" stroke="#4c465e"/>
        <path fill="none" stroke-width="1.0"
              d="M 12.386153,-234.863190 C 45.062008,-193.683212 32.305824,-82.899460 -8.874154,-50.223602"
              class="447.0 382.0" stroke-opacity="1.0" stroke="#706182"/>
        <path fill="none" stroke-width="1.0"
              d="M 12.386153,-234.863190 C 49.042198,-271.519226 49.042198,-198.207153 12.386153,-234.863190"
              class="447.0" stroke-opacity="1.0" stroke="#5669a6"/>
        <path fill="none" stroke-width="1.0"
              d="M -333.070770,-177.309677 C -301.397644,-208.982803 -301.397644,-145.636551 -333.070770,-177.309677"
              class="522.0" stroke-opacity="1.0" stroke="#5669a6"/>
        <path fill="none" stroke-width="1.0"
              d="M -853.756470,-961.062317 C -833.756470,-981.062317 -833.756470,-941.062317 -853.756470,-961.062317"
              class="560.0" stroke-opacity="1.0" stroke="#999999"/>
        <path fill="none" stroke-width="1.0"
              d="M 65.555130,-180.414825 C 99.603462,-214.463165 99.603462,-146.366486 65.555130,-180.414825"
              class="565.0" stroke-opacity="1.0" stroke="#5669a6"/>
    </g>
    <g id="nodes">
        <circle fill-opacity="1.0" fill="#222c42" r="15.836561" cx="70.3763"
                class="14.0" cy="69.72197" stroke="#000000" stroke-opacity="1.0"
                stroke-width="1.0"/>
        <circle fill-opacity="1.0" fill="#5669a6" r="18.053425" cx="125.42053"
                class="26.0" cy="88.31314" stroke="#000000" stroke-opacity="1.0"
                stroke-width="1.0"/>
        <circle fill-opacity="1.0" fill="#5669a6" r="13.693686" cx="-294.20306"
                class="70.0" cy="2.1237113" stroke="#000000"
                stroke-opacity="1.0" stroke-width="1.0"/>
        <circle fill-opacity="1.0" fill="#5669a6" r="20.0" cx="469.02518"
                class="72.0" cy="-372.4493" stroke="#000000"
                stroke-opacity="1.0" stroke-width="1.0"/>
        <circle fill-opacity="1.0" fill="#76607a" r="16.902668" cx="670.25476"
                class="118.0" cy="-458.64282" stroke="#000000"
                stroke-opacity="1.0" stroke-width="1.0"/>
        <circle fill-opacity="1.0" fill="#76607a" r="12.755928" cx="320.24112"
                class="122.0" cy="-145.12474" stroke="#000000"
                stroke-opacity="1.0" stroke-width="1.0"/>
        <circle fill-opacity="1.0" fill="#5669a6" r="18.450954" cx="179.54027"
                class="206.0" cy="-63.1576" stroke="#000000"
                stroke-opacity="1.0" stroke-width="1.0"/>
        <circle fill-opacity="1.0" fill="#76607a" r="16.902668" cx="38.628044"
                class="217.0" cy="196.87924" stroke="#000000"
                stroke-opacity="1.0" stroke-width="1.0"/>
        <circle fill-opacity="1.0" fill="#222c42" r="17.139843" cx="31.945358"
                class="218.0" cy="30.085281" stroke="#000000"
                stroke-opacity="1.0" stroke-width="1.0"/>
        <circle fill-opacity="1.0" fill="#76607a" r="15.207909" cx="25.1095"
                class="222.0" cy="111.99389" stroke="#000000"
                stroke-opacity="1.0" stroke-width="1.0"/>
        <circle fill-opacity="1.0" fill="#5669a6" r="17.024166" cx="164.08543"
                class="232.0" cy="6.5684834" stroke="#000000"
                stroke-opacity="1.0" stroke-width="1.0"/>
        <circle fill-opacity="1.0" fill="#5669a6" r="18.328022" cx="-159.55379"
                class="250.0" cy="99.20022" stroke="#000000"
                stroke-opacity="1.0" stroke-width="1.0"/>
        <circle fill-opacity="1.0" fill="#5669a6" r="11.319138" cx="-80.36126"
                class="257.0" cy="114.431076" stroke="#000000"
                stroke-opacity="1.0" stroke-width="1.0"/>
        <circle fill-opacity="1.0" fill="#76607a" r="18.450954" cx="-190.6809"
                class="271.0" cy="-24.54475" stroke="#000000"
                stroke-opacity="1.0" stroke-width="1.0"/>
        <circle fill-opacity="1.0" fill="#5669a6" r="17.250137" cx="43.508488"
                class="281.0" cy="-114.50221" stroke="#000000"
                stroke-opacity="1.0" stroke-width="1.0"/>
        <circle fill-opacity="1.0" fill="#5669a6" r="18.565462" cx="-32.71089"
                class="286.0" cy="11.454579" stroke="#000000"
                stroke-opacity="1.0" stroke-width="1.0"/>
        <circle fill-opacity="1.0" fill="#222c42" r="12.755928" cx="-108.0833"
                class="326.0" cy="114.31397" stroke="#000000"
                stroke-opacity="1.0" stroke-width="1.0"/>
        <circle fill-opacity="1.0" fill="#76607a" r="16.497921" cx="-74.67607"
                class="333.0" cy="16.437788" stroke="#000000"
                stroke-opacity="1.0" stroke-width="1.0"/>
        <circle fill-opacity="1.0" fill="#5669a6" r="13.263611" cx="-113.67095"
                class="339.0" cy="3.8242414" stroke="#000000"
                stroke-opacity="1.0" stroke-width="1.0"/>
        <circle fill-opacity="1.0" fill="#5669a6" r="16.497921" cx="24.964705"
                class="343.0" cy="137.45361" stroke="#000000"
                stroke-opacity="1.0" stroke-width="1.0"/>
        <circle fill-opacity="1.0" fill="#222c42" r="16.640154" cx="-38.087894"
                class="350.0" cy="142.6635" stroke="#000000"
                stroke-opacity="1.0" stroke-width="1.0"/>
        <circle fill-opacity="1.0" fill="#5669a6" r="16.497921" cx="160.49283"
                class="355.0" cy="186.50253" stroke="#000000"
                stroke-opacity="1.0" stroke-width="1.0"/>
        <circle fill-opacity="1.0" fill="#5669a6" r="18.328022" cx="-73.14538"
                class="367.0" cy="-136.10825" stroke="#000000"
                stroke-opacity="1.0" stroke-width="1.0"/>
        <circle fill-opacity="1.0" fill="#8a5a5f" r="17.978039" cx="-8.874154"
                class="382.0" cy="-50.223602" stroke="#000000"
                stroke-opacity="1.0" stroke-width="1.0"/>
        <circle fill-opacity="1.0" fill="#999999" r="10.0" cx="590.5643"
                class="395.0" cy="1207.769" stroke="#000000"
                stroke-opacity="1.0" stroke-width="1.0"/>
        <circle fill-opacity="1.0" fill="#5669a6" r="13.693686" cx="-93.81178"
                class="396.0" cy="187.74352" stroke="#000000"
                stroke-opacity="1.0" stroke-width="1.0"/>
        <circle fill-opacity="1.0" fill="#5669a6" r="17.552437" cx="-10.0533085"
                class="399.0" cy="219.23698" stroke="#000000"
                stroke-opacity="1.0" stroke-width="1.0"/>
        <circle fill-opacity="1.0" fill="#5669a6" r="15.207909" cx="112.183685"
                class="401.0" cy="-47.207493" stroke="#000000"
                stroke-opacity="1.0" stroke-width="1.0"/>
        <circle fill-opacity="1.0" fill="#5669a6" r="12.755928" cx="-149.72174"
                class="413.0" cy="207.55513" stroke="#000000"
                stroke-opacity="1.0" stroke-width="1.0"/>
        <circle fill-opacity="1.0" fill="#5669a6" r="12.1333885" cx="143.46274"
                class="414.0" cy="-260.19394" stroke="#000000"
                stroke-opacity="1.0" stroke-width="1.0"/>
        <circle fill-opacity="1.0" fill="#5669a6" r="14.962609" cx="-8.771355"
                class="418.0" cy="124.568634" stroke="#000000"
                stroke-opacity="1.0" stroke-width="1.0"/>
        <circle fill-opacity="1.0" fill="#5669a6" r="17.733194" cx="210.47162"
                class="419.0" cy="-225.86462" stroke="#000000"
                stroke-opacity="1.0" stroke-width="1.0"/>
        <circle fill-opacity="1.0" fill="#222c42" r="17.139843" cx="-118.57456"
                class="446.0" cy="-70.17457" stroke="#000000"
                stroke-opacity="1.0" stroke-width="1.0"/>
        <circle fill-opacity="1.0" fill="#5669a6" r="18.328022" cx="12.386153"
                class="447.0" cy="-234.86319" stroke="#000000"
                stroke-opacity="1.0" stroke-width="1.0"/>
        <circle fill-opacity="1.0" fill="#222c42" r="14.6941395"
                cx="-120.334656" class="462.0" cy="151.54623" stroke="#000000"
                stroke-opacity="1.0" stroke-width="1.0"/>
        <circle fill-opacity="1.0" fill="#5669a6" r="15.836561" cx="-333.07077"
                class="522.0" cy="-177.30968" stroke="#000000"
                stroke-opacity="1.0" stroke-width="1.0"/>
        <circle fill-opacity="1.0" fill="#999999" r="10.0" cx="-853.7565"
                class="560.0" cy="-961.0623" stroke="#000000"
                stroke-opacity="1.0" stroke-width="1.0"/>
        <circle fill-opacity="1.0" fill="#5669a6" r="17.024166" cx="65.55513"
                class="565.0" cy="-180.41483" stroke="#000000"
                stroke-opacity="1.0" stroke-width="1.0"/>
        <circle fill-opacity="1.0" fill="#222c42" r="15.207909" cx="-4.526709"
                class="587.0" cy="325.25424" stroke="#000000"
                stroke-opacity="1.0" stroke-width="1.0"/>
    </g>
</svg>